<?xml version="1.0" encoding="UTF-8"?>
<svg version="1.1" xmlns="http://www.w3.org/2000/svg" width="512" height="559">
<path d="M0 0 C0.93231445 0.16097168 1.86462891 0.32194336 2.82519531 0.48779297 C46.87109893 8.28836896 87.60094447 28.44094283 121 58 C121.88171875 58.77085937 122.7634375 59.54171875 123.671875 60.3359375 C133.31965636 68.87512286 142.03992806 77.86526923 150 88 C150.79148437 88.98613281 151.58296875 89.97226562 152.3984375 90.98828125 C185.33279931 132.70167641 204.03747072 184.51091381 204.5 237.6875 C204.52791626 239.62919067 204.52791626 239.62919067 204.55639648 241.61010742 C204.50651288 248.97786707 203.76195378 254.61069203 200 261 C199.54238281 261.79792969 199.08476562 262.59585937 198.61328125 263.41796875 C193.54170223 270.31714381 187.25751777 274.68373239 179 277 C176.32070615 277.18334464 173.74824865 277.27248959 171.07162762 277.25726891 C169.89524461 277.26252802 169.89524461 277.26252802 168.69509628 277.26789337 C166.06323632 277.27720831 163.43159757 277.27228382 160.79972839 277.26742554 C158.89530469 277.27116174 156.99088253 277.27576315 155.0864628 277.28115618 C149.84984977 277.29340516 144.61330053 277.29312348 139.37667644 277.29076743 C133.73033019 277.29035975 128.08400453 277.30139377 122.43766785 277.31088257 C111.37429273 277.32750378 100.31093892 277.33299262 89.24755236 277.33410732 C80.25606384 277.33505723 71.26458237 277.33916467 62.27309608 277.34550858 C40.93591741 277.36025686 19.59874531 277.37255799 -1.73843861 277.37151146 C-2.76197617 277.37146472 -2.76197617 277.37146472 -3.80619127 277.37141704 C-7.26466041 277.37125083 -10.72312956 277.37105275 -14.1815987 277.37084763 C-14.86846201 277.37080774 -15.55532532 277.37076785 -16.26300267 277.37072675 C-17.65200761 277.37064587 -19.04101255 277.37056228 -20.43001749 277.37047596 C-42.04101838 277.36925044 -63.65195652 277.38426404 -85.26293945 277.41162109 C-109.54330326 277.44234462 -133.82361302 277.4595281 -158.10400027 277.45769465 C-170.95979741 277.45703024 -183.81552377 277.462545 -196.6713047 277.48405075 C-207.61623801 277.50224242 -218.56106846 277.50662639 -229.50601033 277.4930319 C-235.09089889 277.48649222 -240.67559 277.48642129 -246.2604599 277.5037384 C-251.37353111 277.51942965 -256.48624765 277.51664575 -261.59931 277.49917014 C-263.44853987 277.49609156 -265.29779596 277.49976482 -267.14699493 277.51089029 C-284.79675501 277.61004095 -284.79675501 277.61004095 -292 273 C-292.79792969 272.54238281 -293.59585937 272.08476563 -294.41796875 271.61328125 C-301.34798959 266.51902752 -305.61599292 260.2634047 -308 252 C-308.4168924 247.17664758 -308.3387043 242.33932456 -308.3125 237.5 C-308.31067719 236.80915314 -308.30885437 236.11830627 -308.30697632 235.40652466 C-308.25233113 223.08038677 -307.31556874 211.11799114 -305 199 C-304.83371094 198.11618652 -304.66742188 197.23237305 -304.49609375 196.32177734 C-293.57799605 140.08346486 -262.54502697 86.28771919 -217 51 C-216.00742188 50.20207031 -215.01484375 49.40414062 -213.9921875 48.58203125 C-205.75032655 42.00801347 -197.06189491 36.37374357 -188 31 C-187.31341309 30.5875 -186.62682617 30.175 -185.91943359 29.75 C-160.65285292 14.67602038 -132.86191532 5.23807984 -104 0 C-103.10249023 -0.16661133 -102.20498047 -0.33322266 -101.28027344 -0.50488281 C-69.17339055 -6.12562382 -32.04522451 -5.86932359 0 0 Z M-101 48 C-102.53648193 48.29801514 -102.53648193 48.29801514 -104.10400391 48.60205078 C-106.44321096 49.09491523 -108.75015401 49.64472174 -111.0625 50.25 C-111.87428711 50.45906982 -112.68607422 50.66813965 -113.52246094 50.88354492 C-127.80500495 54.69691246 -141.25174335 60.16221351 -154.28955078 67.09619141 C-155.79509353 67.89172655 -157.31639234 68.65729081 -158.83984375 69.41796875 C-183.9729069 82.30575 -206.54245611 103.22883668 -223 126 C-223.41024414 126.56058105 -223.82048828 127.12116211 -224.24316406 127.69873047 C-245.34974327 156.85187966 -260 193.74299288 -260 230 C-122.72 230 14.56 230 156 230 C156 204.1993144 148.33113959 179.03786784 137 156 C136.65743164 155.29182129 136.31486328 154.58364258 135.96191406 153.85400391 C118.61239135 118.30607689 89.96794347 89.79514176 56 70 C55.4004248 69.64599121 54.80084961 69.29198242 54.18310547 68.92724609 C40.03738471 60.66167687 24.66946925 55.1187629 8.9375 50.6875 C8.13755615 50.45724121 7.3376123 50.22698242 6.51342773 49.98974609 C-11.36099921 45.20474287 -29.19827759 44.5181049 -47.61767578 44.60888672 C-51.49417297 44.62497582 -55.36962788 44.60894929 -59.24609375 44.58984375 C-73.4272726 44.57762245 -87.07808484 45.22446611 -101 48 Z " fill="#000000" transform="translate(308,282)"/>
<path d="M0 0 C0.66085602 0.00248749 1.32171204 0.00497498 2.00259399 0.00753784 C30.28480687 0.17203141 55.99929663 9.50040193 77.25 28.3125 C77.95382812 28.88484375 78.65765625 29.4571875 79.3828125 30.046875 C100.92993147 47.79156121 113.66373495 76.43219748 116.97265625 103.69140625 C119.41355954 135.5606647 111.61428299 166.47308352 90.85546875 191.16015625 C88.69712773 193.59052698 86.49899569 195.96610685 84.25 198.3125 C83.425 199.17875 82.6 200.045 81.75 200.9375 C80.925 201.72125 80.1 202.505 79.25 203.3125 C78.67636719 203.88097656 78.10273438 204.44945312 77.51171875 205.03515625 C53.13721589 228.12437459 21.39720583 234.29023854 -11.07275391 233.49169922 C-18.90266554 233.11013268 -26.27498004 231.62088454 -33.75 229.3125 C-34.44722168 229.09819336 -35.14444336 228.88388672 -35.86279297 228.66308594 C-50.78858637 223.89931355 -63.53795881 216.06390602 -75.75 206.3125 C-76.42804688 205.77753906 -77.10609375 205.24257812 -77.8046875 204.69140625 C-82.30706544 200.99945634 -86.07692625 196.81966759 -89.75 192.3125 C-90.45125 191.46042969 -91.1525 190.60835937 -91.875 189.73046875 C-104.18384115 174.10935264 -113.02571978 155.12544708 -115.75 135.3125 C-115.85957031 134.590625 -115.96914062 133.86875 -116.08203125 133.125 C-119.95733197 102.53595963 -112.47864579 71.78430131 -94.25 46.875 C-92.76979186 45.00499522 -91.27050561 43.14988856 -89.75 41.3125 C-88.72326172 40.04019531 -88.72326172 40.04019531 -87.67578125 38.7421875 C-66.00351131 13.18413164 -33.0310042 -0.14906256 0 0 Z M-51.0703125 69.1875 C-65.01640213 86.83092502 -70.40984859 104.97458884 -68.75 127.3125 C-66.34703917 145.77992488 -55.22398238 161.96165081 -40.76953125 173.2421875 C-25.40923636 183.77382565 -7.66577447 188.36705896 10.8515625 185.81640625 C23.11098931 183.41073159 33.42930568 179.04265048 43.25 171.3125 C44.01054687 170.72855469 44.77109375 170.14460938 45.5546875 169.54296875 C55.10994069 161.69046829 61.99881065 150.86573222 66.25 139.3125 C66.56839844 138.45011719 66.88679687 137.58773437 67.21484375 136.69921875 C72.48323986 119.53444434 70.03519817 100.29458862 62 84.5 C51.80570779 66.80097352 36.82175781 54.37932875 17.0625 48.98828125 C-7.10444785 43.18150072 -34.01159574 50.85574468 -51.0703125 69.1875 Z " fill="#000000" transform="translate(255.75,-0.3125)"/>
</svg>
